<svg width="118" height="131" viewBox="0 0 118 131" fill="none" xmlns="http://www.w3.org/2000/svg">
<mask id="path-2-inside-1_1_23" fill="white">
<path d="M109 40.7513C109 43.0112 106.528 44.5175 104.294 44.1745C103.546 44.0596 102.78 44 102 44C93.7157 44 87 50.7157 87 59C87 67.2843 93.7157 74 102 74C102.78 74 103.547 73.9403 104.295 73.8253C106.528 73.482 109 74.988 109 77.2479V106C109 107.657 107.657 109 106 109L77.2479 109C74.988 109 73.482 111.472 73.8253 113.705C73.9403 114.453 74 115.22 74 116C74 124.284 67.2843 131 59 131C50.7157 131 44 124.284 44 116C44 115.22 44.0597 114.453 44.1747 113.705C44.518 111.472 43.012 109 40.7521 109H12C10.3431 109 9 107.657 9 106L9 77.2479C9 74.988 11.4717 73.482 13.7054 73.8253C14.4535 73.9403 15.2198 74 16 74C24.2843 74 31 67.2843 31 59C31 50.7157 24.2843 44 16 44C15.2198 44 14.4535 44.0596 13.7055 44.1745C11.4718 44.5175 9 43.0112 9 40.7513L9 12C9 10.3431 10.3431 9 12 9L106 9C107.657 9 109 10.3431 109 12V40.7513Z"/>
</mask>
<path d="M109 40.7513C109 43.0112 106.528 44.5175 104.294 44.1745C103.546 44.0596 102.78 44 102 44C93.7157 44 87 50.7157 87 59C87 67.2843 93.7157 74 102 74C102.78 74 103.547 73.9403 104.295 73.8253C106.528 73.482 109 74.988 109 77.2479V106C109 107.657 107.657 109 106 109L77.2479 109C74.988 109 73.482 111.472 73.8253 113.705C73.9403 114.453 74 115.22 74 116C74 124.284 67.2843 131 59 131C50.7157 131 44 124.284 44 116C44 115.22 44.0597 114.453 44.1747 113.705C44.518 111.472 43.012 109 40.7521 109H12C10.3431 109 9 107.657 9 106L9 77.2479C9 74.988 11.4717 73.482 13.7054 73.8253C14.4535 73.9403 15.2198 74 16 74C24.2843 74 31 67.2843 31 59C31 50.7157 24.2843 44 16 44C15.2198 44 14.4535 44.0596 13.7055 44.1745C11.4718 44.5175 9 43.0112 9 40.7513L9 12C9 10.3431 10.3431 9 12 9L106 9C107.657 9 109 10.3431 109 12V40.7513Z" fill="white"/>
<path d="M102 44L102 43L102 44ZM102 74L102 75L102 75L102 74ZM74 116L75 116V116L74 116ZM59 131L59 132L59 131ZM44 116L45 116L44 116ZM16 74L16 73L16 74ZM16 44L16 43H16L16 44ZM13.7054 73.8253L13.5535 74.8137L13.7054 73.8253ZM77.2479 109V110V109ZM73.8253 113.705L72.837 113.857L73.8253 113.705ZM104.295 73.8253L104.446 74.8137L104.295 73.8253ZM44.1747 113.705L45.163 113.857L44.1747 113.705ZM106 109V108V109ZM104.294 44.1745L104.446 43.186C103.648 43.0635 102.831 43 102 43L102 44L102 45C102.729 45 103.445 45.0557 104.143 45.1629L104.294 44.1745ZM102 44L102 43C93.1634 43 86 50.1634 86 59L87 59L88 59C88 51.268 94.268 45 102 45L102 44ZM87 59L86 59C86 67.8366 93.1634 75 102 75L102 74L102 73C94.268 73 88 66.732 88 59L87 59ZM102 74L102 75C102.831 75 103.648 74.9364 104.446 74.8137L104.295 73.8253L104.143 72.837C103.445 72.9442 102.729 73 102 73L102 74ZM109 77.2479H108V106H109H110V77.2479H109ZM106 109V108L77.2479 108V109V110L106 110V109ZM73.8253 113.705L72.837 113.857C72.9442 114.555 73 115.271 73 116L74 116L75 116C75 115.169 74.9364 114.352 74.8137 113.554L73.8253 113.705ZM74 116L73 116C73 123.732 66.732 130 59 130L59 131L59 132C67.8366 132 75 124.837 75 116L74 116ZM59 131L59 130C51.268 130 45 123.732 45 116L44 116L43 116C43 124.837 50.1634 132 59 132L59 131ZM44 116L45 116C45 115.271 45.0558 114.555 45.163 113.857L44.1747 113.705L43.1863 113.554C43.0636 114.352 43 115.169 43 116L44 116ZM40.7521 109V108H12V109V110H40.7521V109ZM9 106H10L10 77.2479H9H8L8 106H9ZM13.7054 73.8253L13.5535 74.8137C14.3516 74.9364 15.1687 75 16 75L16 74L16 73C15.2708 73 14.5553 72.9442 13.8574 72.837L13.7054 73.8253ZM16 74L16 75C24.8366 75 32 67.8366 32 59L31 59L30 59C30 66.732 23.732 73 16 73L16 74ZM31 59L32 59C32 50.1634 24.8366 43 16 43L16 44L16 45C23.732 45 30 51.268 30 59L31 59ZM16 44L16 43C15.1688 43 14.3518 43.0635 13.5537 43.186L13.7055 44.1745L13.8573 45.1629C14.5553 45.0557 15.2708 45 16 45L16 44ZM9 40.7513H10L10 12H9H8L8 40.7513H9ZM12 9V10L106 10V9V8L12 8V9ZM109 12H108V40.7513L109 40.7513H110V12H109ZM106 9V10C107.105 10 108 10.8954 108 12H109H110C110 9.79086 108.209 8 106 8V9ZM9 77.2479H10C10 76.5149 10.3949 75.856 11.0812 75.3848C11.7758 74.9077 12.6967 74.682 13.5535 74.8137L13.7054 73.8253L13.8574 72.837C12.4804 72.6253 11.0486 72.9809 9.94899 73.7361C8.841 74.4969 8 75.7211 8 77.2479H9ZM9 12H10C10 10.8954 10.8954 10 12 10V9V8C9.79086 8 8 9.79086 8 12H9ZM77.2479 109V108C75.7211 108 74.4969 108.841 73.7361 109.949C72.9809 111.049 72.6253 112.48 72.837 113.857L73.8253 113.705L74.8137 113.554C74.682 112.697 74.9077 111.776 75.3848 111.081C75.856 110.395 76.5149 110 77.2479 110V109ZM104.295 73.8253L104.446 74.8137C105.303 74.682 106.224 74.9077 106.919 75.3848C107.605 75.856 108 76.5149 108 77.2479H109H110C110 75.7211 109.159 74.4969 108.051 73.7361C106.951 72.9809 105.52 72.6253 104.143 72.837L104.295 73.8253ZM44.1747 113.705L45.163 113.857C45.3747 112.48 45.0191 111.049 44.2639 109.949C43.5031 108.841 42.2789 108 40.7521 108V109V110C41.4851 110 42.144 110.395 42.6152 111.081C43.0923 111.776 43.318 112.697 43.1863 113.554L44.1747 113.705ZM13.7055 44.1745L13.5537 43.186C12.6969 43.3176 11.776 43.0918 11.0813 42.6146C10.3949 42.1432 10 41.4843 10 40.7513H9H8C8 42.2781 8.841 43.5023 9.94895 44.2632C11.0486 45.0185 12.4803 45.3743 13.8573 45.1629L13.7055 44.1745ZM109 106H108C108 107.105 107.105 108 106 108V109V110C108.209 110 110 108.209 110 106H109ZM12 109V108C10.8954 108 10 107.105 10 106H9H8C8 108.209 9.79086 110 12 110V109ZM104.294 44.1745L104.143 45.1629C105.52 45.3743 106.951 45.0185 108.051 44.2632C109.159 43.5023 110 42.2781 110 40.7513H109L108 40.7513C108 41.4843 107.605 42.1432 106.919 42.6146C106.224 43.0918 105.303 43.3176 104.446 43.186L104.294 44.1745Z" fill="black" mask="url(#path-2-inside-1_1_23)"/>
</svg>
