<svg width="131" height="131" viewBox="0 0 131 131" fill="none" xmlns="http://www.w3.org/2000/svg">
<mask id="path-2-inside-1_1_20" fill="white">
<path d="M109 40.7513C109 43.0112 111.472 44.5175 113.706 44.1745C114.454 44.0596 115.22 44 116 44C124.284 44 131 50.7157 131 59C131 67.2843 124.284 74 116 74C115.22 74 114.453 73.9403 113.705 73.8253C111.472 73.482 109 74.988 109 77.2479V106C109 107.657 107.657 109 106 109L77.2479 109C74.988 109 73.482 111.472 73.8253 113.705C73.9403 114.453 74 115.22 74 116C74 124.284 67.2843 131 59 131C50.7157 131 44 124.284 44 116C44 115.22 44.0597 114.453 44.1747 113.705C44.518 111.472 43.012 109 40.7521 109H12C10.3431 109 9 107.657 9 106L9 12C9 10.3431 10.3431 9 12 9L40.7521 9C43.012 9 44.518 11.4717 44.1747 13.7054C44.0597 14.4535 44 15.2198 44 16C44 24.2843 50.7157 31 59 31C67.2843 31 74 24.2843 74 16C74 15.2198 73.9403 14.4535 73.8253 13.7054C73.482 11.4717 74.988 9 77.2479 9L106 9C107.657 9 109 10.3431 109 12V40.7513Z"/>
</mask>
<path d="M109 40.7513C109 43.0112 111.472 44.5175 113.706 44.1745C114.454 44.0596 115.22 44 116 44C124.284 44 131 50.7157 131 59C131 67.2843 124.284 74 116 74C115.22 74 114.453 73.9403 113.705 73.8253C111.472 73.482 109 74.988 109 77.2479V106C109 107.657 107.657 109 106 109L77.2479 109C74.988 109 73.482 111.472 73.8253 113.705C73.9403 114.453 74 115.22 74 116C74 124.284 67.2843 131 59 131C50.7157 131 44 124.284 44 116C44 115.22 44.0597 114.453 44.1747 113.705C44.518 111.472 43.012 109 40.7521 109H12C10.3431 109 9 107.657 9 106L9 12C9 10.3431 10.3431 9 12 9L40.7521 9C43.012 9 44.518 11.4717 44.1747 13.7054C44.0597 14.4535 44 15.2198 44 16C44 24.2843 50.7157 31 59 31C67.2843 31 74 24.2843 74 16C74 15.2198 73.9403 14.4535 73.8253 13.7054C73.482 11.4717 74.988 9 77.2479 9L106 9C107.657 9 109 10.3431 109 12V40.7513Z" fill="white"/>
<path d="M116 44L116 43H116L116 44ZM116 74L116 73L116 74ZM74 116L75 116V116L74 116ZM44 116L45 116L44 116ZM74 16L75 16V16L74 16ZM44.1747 13.7054L45.163 13.8574L44.1747 13.7054ZM73.8253 13.7054L74.8137 13.5535L73.8253 13.7054ZM73.8253 113.705L72.837 113.857L73.8253 113.705ZM113.705 73.8253L113.554 74.8137L113.705 73.8253ZM44.1747 113.705L45.163 113.857L44.1747 113.705ZM113.706 44.1745L113.554 43.186L113.706 44.1745ZM113.706 44.1745L113.857 45.1629C114.555 45.0557 115.271 45 116 45L116 44L116 43C115.169 43 114.352 43.0635 113.554 43.186L113.706 44.1745ZM116 44L116 45C123.732 45 130 51.268 130 59L131 59L132 59C132 50.1634 124.837 43 116 43L116 44ZM131 59L130 59C130 66.732 123.732 73 116 73L116 74L116 75C124.837 75 132 67.8366 132 59L131 59ZM116 74L116 73C115.271 73 114.555 72.9442 113.857 72.837L113.705 73.8253L113.554 74.8137C114.352 74.9364 115.169 75 116 75L116 74ZM109 77.2479H108V106H109H110V77.2479H109ZM106 109V108L77.2479 108V109V110L106 110V109ZM73.8253 113.705L72.837 113.857C72.9442 114.555 73 115.271 73 116L74 116L75 116C75 115.169 74.9364 114.352 74.8137 113.554L73.8253 113.705ZM74 116L73 116C73 123.732 66.732 130 59 130L59 131L59 132C67.8366 132 75 124.837 75 116L74 116ZM59 131L59 130C51.268 130 45 123.732 45 116L44 116L43 116C43 124.837 50.1634 132 59 132L59 131ZM44 116L45 116C45 115.271 45.0558 114.555 45.163 113.857L44.1747 113.705L43.1863 113.554C43.0636 114.352 43 115.169 43 116L44 116ZM40.7521 109V108H12V109V110H40.7521V109ZM9 106H10L10 12H9H8L8 106H9ZM12 9V10L40.7521 10V9V8L12 8V9ZM44.1747 13.7054L43.1863 13.5535C43.0636 14.3516 43 15.1687 43 16L44 16L45 16C45 15.2708 45.0558 14.5553 45.163 13.8574L44.1747 13.7054ZM44 16L43 16C43 24.8366 50.1634 32 59 32L59 31L59 30C51.268 30 45 23.732 45 16L44 16ZM59 31L59 32C67.8366 32 75 24.8366 75 16L74 16L73 16C73 23.732 66.732 30 59 30L59 31ZM74 16L75 16C75 15.1687 74.9364 14.3516 74.8137 13.5535L73.8253 13.7054L72.837 13.8574C72.9442 14.5553 73 15.2708 73 16L74 16ZM77.2479 9V10L106 10V9V8L77.2479 8V9ZM109 12H108V40.7513L109 40.7513H110V12H109ZM106 9V10C107.105 10 108 10.8954 108 12H109H110C110 9.79086 108.209 8 106 8V9ZM40.7521 9V10C41.4851 10 42.144 10.3949 42.6152 11.0812C43.0923 11.7758 43.318 12.6967 43.1863 13.5535L44.1747 13.7054L45.163 13.8574C45.3747 12.4804 45.0191 11.0486 44.2639 9.94899C43.5031 8.841 42.2789 8 40.7521 8V9ZM9 12H10C10 10.8954 10.8954 10 12 10V9V8C9.79086 8 8 9.79086 8 12H9ZM73.8253 13.7054L74.8137 13.5535C74.682 12.6967 74.9077 11.7758 75.3848 11.0812C75.856 10.3949 76.5149 10 77.2479 10V9V8C75.7211 8 74.4969 8.841 73.7361 9.94899C72.9809 11.0486 72.6253 12.4804 72.837 13.8574L73.8253 13.7054ZM77.2479 109V108C75.7211 108 74.4969 108.841 73.7361 109.949C72.9809 111.049 72.6253 112.48 72.837 113.857L73.8253 113.705L74.8137 113.554C74.682 112.697 74.9077 111.776 75.3848 111.081C75.856 110.395 76.5149 110 77.2479 110V109ZM113.705 73.8253L113.857 72.837C112.48 72.6253 111.049 72.9809 109.949 73.7361C108.841 74.4969 108 75.7211 108 77.2479H109H110C110 76.5149 110.395 75.856 111.081 75.3848C111.776 74.9077 112.697 74.682 113.554 74.8137L113.705 73.8253ZM44.1747 113.705L45.163 113.857C45.3747 112.48 45.0191 111.049 44.2639 109.949C43.5031 108.841 42.2789 108 40.7521 108V109V110C41.4851 110 42.144 110.395 42.6152 111.081C43.0923 111.776 43.318 112.697 43.1863 113.554L44.1747 113.705ZM109 106H108C108 107.105 107.105 108 106 108V109V110C108.209 110 110 108.209 110 106H109ZM12 109V108C10.8954 108 10 107.105 10 106H9H8C8 108.209 9.79086 110 12 110V109ZM113.706 44.1745L113.554 43.186C112.697 43.3176 111.776 43.0918 111.081 42.6146C110.395 42.1432 110 41.4843 110 40.7513H109L108 40.7513C108 42.2781 108.841 43.5023 109.949 44.2632C111.049 45.0185 112.48 45.3743 113.857 45.1629L113.706 44.1745Z" fill="black" mask="url(#path-2-inside-1_1_20)"/>
</svg>
