<svg width="131" height="118" viewBox="0 0 131 118" fill="none" xmlns="http://www.w3.org/2000/svg">
<mask id="path-2-inside-1_1_21" fill="white">
<path d="M122 40.7513C122 43.0112 119.528 44.5175 117.294 44.1745C116.546 44.0596 115.78 44 115 44C106.716 44 100 50.7157 100 59C100 67.2843 106.716 74 115 74C115.78 74 116.547 73.9403 117.295 73.8253C119.528 73.482 122 74.988 122 77.2479L122 106C122 107.657 120.657 109 119 109L90.2479 109C87.988 109 86.482 106.528 86.8253 104.295C86.9403 103.547 87 102.78 87 102C87 93.7157 80.2843 87 72 87C63.7157 87 57 93.7157 57 102C57 102.78 57.0597 103.547 57.1747 104.295C57.518 106.528 56.012 109 53.7521 109H25C23.3431 109 22 107.657 22 106L22 77.2479C22 74.988 19.5283 73.482 17.2946 73.8253C16.5465 73.9403 15.7802 74 15 74C6.71573 74 5.26656e-07 67.2843 0 59C-5.26656e-07 50.7157 6.71573 44 15 44C15.7802 44 16.5465 44.0596 17.2945 44.1745C19.5282 44.5175 22 43.0112 22 40.7513L22 12C22 10.3431 23.3431 9 25 9L119 9C120.657 9 122 10.3431 122 12V40.7513Z"/>
</mask>
<path d="M122 40.7513C122 43.0112 119.528 44.5175 117.294 44.1745C116.546 44.0596 115.78 44 115 44C106.716 44 100 50.7157 100 59C100 67.2843 106.716 74 115 74C115.78 74 116.547 73.9403 117.295 73.8253C119.528 73.482 122 74.988 122 77.2479L122 106C122 107.657 120.657 109 119 109L90.2479 109C87.988 109 86.482 106.528 86.8253 104.295C86.9403 103.547 87 102.78 87 102C87 93.7157 80.2843 87 72 87C63.7157 87 57 93.7157 57 102C57 102.78 57.0597 103.547 57.1747 104.295C57.518 106.528 56.012 109 53.7521 109H25C23.3431 109 22 107.657 22 106L22 77.2479C22 74.988 19.5283 73.482 17.2946 73.8253C16.5465 73.9403 15.7802 74 15 74C6.71573 74 5.26656e-07 67.2843 0 59C-5.26656e-07 50.7157 6.71573 44 15 44C15.7802 44 16.5465 44.0596 17.2945 44.1745C19.5282 44.5175 22 43.0112 22 40.7513L22 12C22 10.3431 23.3431 9 25 9L119 9C120.657 9 122 10.3431 122 12V40.7513Z" fill="white"/>
<path d="M115 44L115 43L115 44ZM115 74L115 75L115 75L115 74ZM87 102L86 102L87 102ZM72 87L72 86L72 87ZM57 102L56 102V102L57 102ZM15 74L15 75L15 75L15 74ZM0 59L-1 59L0 59ZM15 44L15 45L15 44ZM17.2946 73.8253L17.4465 74.8137L17.2946 73.8253ZM86.8253 104.295L87.8137 104.446L86.8253 104.295ZM117.295 73.8253L117.143 72.837L117.295 73.8253ZM122 77.2479H121H122ZM57.1747 104.295L58.163 104.143L57.1747 104.295ZM17.2945 44.1745L17.1427 45.1629L17.2945 44.1745ZM117.294 44.1745L117.446 43.186C116.648 43.0635 115.831 43 115 43L115 44L115 45C115.729 45 116.445 45.0557 117.143 45.1629L117.294 44.1745ZM115 44L115 43C106.163 43 99 50.1634 99 59L100 59L101 59C101 51.268 107.268 45 115 45L115 44ZM100 59L99 59C99 67.8366 106.163 75 115 75L115 74L115 73C107.268 73 101 66.732 101 59L100 59ZM115 74L115 75C115.831 75 116.648 74.9364 117.446 74.8137L117.295 73.8253L117.143 72.837C116.445 72.9442 115.729 73 115 73L115 74ZM122 77.2479H121L121 106H122H123L123 77.2479H122ZM119 109V108L90.2479 108V109V110L119 110V109ZM86.8253 104.295L87.8137 104.446C87.9364 103.648 88 102.831 88 102L87 102L86 102C86 102.729 85.9442 103.445 85.837 104.143L86.8253 104.295ZM87 102L88 102C88 93.1634 80.8366 86 72 86L72 87L72 88C79.732 88 86 94.268 86 102L87 102ZM72 87L72 86C63.1634 86 56 93.1634 56 102L57 102L58 102C58 94.268 64.268 88 72 88L72 87ZM57 102L56 102C56 102.831 56.0636 103.648 56.1863 104.446L57.1747 104.295L58.163 104.143C58.0558 103.445 58 102.729 58 102L57 102ZM53.7521 109V108H25V109V110H53.7521V109ZM22 106H23L23 77.2479H22H21L21 106H22ZM17.2946 73.8253L17.1426 72.837C16.4447 72.9442 15.7292 73 15 73L15 74L15 75C15.8313 75 16.6484 74.9364 17.4465 74.8137L17.2946 73.8253ZM15 74L15 73C7.26801 73 1 66.732 1 59L0 59L-1 59C-0.999999 67.8366 6.16344 75 15 75L15 74ZM0 59L1 59C1 51.268 7.26801 45 15 45L15 44L15 43C6.16344 43 -1 50.1634 -1 59L0 59ZM15 44L15 45C15.7292 45 16.4447 45.0557 17.1427 45.1629L17.2945 44.1745L17.4463 43.186C16.6482 43.0635 15.8312 43 15 43L15 44ZM22 40.7513H23L23 12H22H21L21 40.7513H22ZM25 9V10L119 10V9V8L25 8V9ZM122 12H121V40.7513H122H123V12H122ZM119 9V10C120.105 10 121 10.8954 121 12H122H123C123 9.79086 121.209 8 119 8V9ZM22 77.2479H23C23 75.7211 22.159 74.4969 21.051 73.7361C19.9514 72.9809 18.5196 72.6253 17.1426 72.837L17.2946 73.8253L17.4465 74.8137C18.3033 74.682 19.2242 74.9077 19.9188 75.3848C20.6051 75.856 21 76.5149 21 77.2479H22ZM22 12H23C23 10.8954 23.8954 10 25 10V9V8C22.7909 8 21 9.79086 21 12H22ZM90.2479 109V108C89.5149 108 88.856 107.605 88.3848 106.919C87.9077 106.224 87.682 105.303 87.8137 104.446L86.8253 104.295L85.837 104.143C85.6253 105.52 85.9809 106.951 86.7361 108.051C87.4969 109.159 88.7211 110 90.2479 110V109ZM117.295 73.8253L117.446 74.8137C118.303 74.682 119.224 74.9077 119.919 75.3848C120.605 75.856 121 76.5149 121 77.2479H122H123C123 75.7211 122.159 74.4969 121.051 73.7361C119.951 72.9809 118.52 72.6253 117.143 72.837L117.295 73.8253ZM57.1747 104.295L56.1863 104.446C56.318 105.303 56.0923 106.224 55.6152 106.919C55.144 107.605 54.4851 108 53.7521 108V109V110C55.2789 110 56.5031 109.159 57.2639 108.051C58.0191 106.951 58.3747 105.52 58.163 104.143L57.1747 104.295ZM17.2945 44.1745L17.1427 45.1629C18.5197 45.3743 19.9514 45.0185 21.051 44.2632C22.159 43.5023 23 42.2781 23 40.7513H22H21C21 41.4843 20.6051 42.1432 19.9187 42.6146C19.224 43.0918 18.3031 43.3176 17.4463 43.186L17.2945 44.1745ZM122 106H121C121 107.105 120.105 108 119 108V109V110C121.209 110 123 108.209 123 106H122ZM25 109V108C23.8954 108 23 107.105 23 106H22H21C21 108.209 22.7909 110 25 110V109ZM117.294 44.1745L117.143 45.1629C118.52 45.3743 119.951 45.0185 121.051 44.2632C122.159 43.5023 123 42.2781 123 40.7513H122H121C121 41.4843 120.605 42.1432 119.919 42.6146C119.224 43.0918 118.303 43.3176 117.446 43.186L117.294 44.1745Z" fill="black" mask="url(#path-2-inside-1_1_21)"/>
</svg>
