<svg width="119" height="132" viewBox="0 0 119 132" fill="none" xmlns="http://www.w3.org/2000/svg">
<mask id="path-2-inside-1_1_24" fill="white">
<path d="M109.17 106.829C109.17 108.486 107.827 109.829 106.17 109.829H77.4181C75.1582 109.829 73.6522 112.301 73.9955 114.535C74.1105 115.283 74.1702 116.049 74.1702 116.829C74.1702 125.114 67.4544 131.829 59.1702 131.829C50.8859 131.829 44.1702 125.114 44.1702 116.829C44.1702 116.049 44.2298 115.283 44.3448 114.535C44.6882 112.301 43.1822 109.829 40.9222 109.829H12.1702C10.5133 109.829 9.17017 108.486 9.17017 106.829V78.0773C9.17017 75.8173 11.6419 74.3113 13.8756 74.6547C14.6236 74.7697 15.3899 74.8293 16.1702 74.8293C24.4544 74.8293 31.1702 68.1136 31.1702 59.8293C31.1702 51.5451 24.4544 44.8293 16.1702 44.8293C15.39 44.8293 14.6237 44.8889 13.8757 45.0038C11.6419 45.3468 9.17017 43.8405 9.17017 41.5806V12.8293C9.17017 11.1725 10.5133 9.82935 12.1702 9.82935H106.17C107.827 9.82935 109.17 11.1725 109.17 12.8293V106.829Z"/>
</mask>
<path d="M109.17 106.829C109.17 108.486 107.827 109.829 106.17 109.829H77.4181C75.1582 109.829 73.6522 112.301 73.9955 114.535C74.1105 115.283 74.1702 116.049 74.1702 116.829C74.1702 125.114 67.4544 131.829 59.1702 131.829C50.8859 131.829 44.1702 125.114 44.1702 116.829C44.1702 116.049 44.2298 115.283 44.3448 114.535C44.6882 112.301 43.1822 109.829 40.9222 109.829H12.1702C10.5133 109.829 9.17017 108.486 9.17017 106.829V78.0773C9.17017 75.8173 11.6419 74.3113 13.8756 74.6547C14.6236 74.7697 15.3899 74.8293 16.1702 74.8293C24.4544 74.8293 31.1702 68.1136 31.1702 59.8293C31.1702 51.5451 24.4544 44.8293 16.1702 44.8293C15.39 44.8293 14.6237 44.8889 13.8757 45.0038C11.6419 45.3468 9.17017 43.8405 9.17017 41.5806V12.8293C9.17017 11.1725 10.5133 9.82935 12.1702 9.82935H106.17C107.827 9.82935 109.17 11.1725 109.17 12.8293V106.829Z" fill="white"/>
<path d="M74.1702 116.829L75.1702 116.829V116.829L74.1702 116.829ZM44.1702 116.829L45.1702 116.829L44.1702 116.829ZM16.1702 74.8293L16.1702 73.8293L16.1702 74.8293ZM16.1702 44.8293L16.1702 43.8293H16.1702L16.1702 44.8293ZM13.8756 74.6547L13.7237 75.6431L13.8756 74.6547ZM73.9955 114.535L73.0071 114.687L73.9955 114.535ZM44.3448 114.535L45.3332 114.687L44.3448 114.535ZM13.8757 45.0038L14.0274 45.9922L13.8757 45.0038ZM106.17 109.829V108.829H77.4181V109.829V110.829H106.17V109.829ZM73.9955 114.535L73.0071 114.687C73.1144 115.385 73.1702 116.1 73.1702 116.829L74.1702 116.829L75.1702 116.829C75.1702 115.998 75.1066 115.181 74.9839 114.383L73.9955 114.535ZM74.1702 116.829L73.1702 116.829C73.1702 124.561 66.9022 130.829 59.1702 130.829L59.1702 131.829L59.1702 132.829C68.0067 132.829 75.1702 125.666 75.1702 116.829L74.1702 116.829ZM59.1702 131.829L59.1702 130.829C51.4382 130.829 45.1702 124.561 45.1702 116.829L44.1702 116.829L43.1702 116.829C43.1702 125.666 50.3336 132.829 59.1702 132.829L59.1702 131.829ZM44.1702 116.829L45.1702 116.829C45.1702 116.1 45.2259 115.385 45.3332 114.687L44.3448 114.535L43.3564 114.383C43.2337 115.181 43.1702 115.998 43.1702 116.829L44.1702 116.829ZM40.9222 109.829V108.829H12.1702V109.829V110.829H40.9222V109.829ZM9.17017 106.829H10.1702V78.0773H9.17017H8.17017V106.829H9.17017ZM13.8756 74.6547L13.7237 75.6431C14.5218 75.7658 15.3389 75.8293 16.1702 75.8293L16.1702 74.8293L16.1702 73.8293C15.441 73.8293 14.7255 73.7736 14.0275 73.6663L13.8756 74.6547ZM16.1702 74.8293L16.1702 75.8293C25.0067 75.8293 32.1702 68.6659 32.1702 59.8293L31.1702 59.8293L30.1702 59.8293C30.1702 67.5613 23.9022 73.8293 16.1702 73.8293L16.1702 74.8293ZM31.1702 59.8293L32.1702 59.8293C32.1702 50.9928 25.0067 43.8293 16.1702 43.8293L16.1702 44.8293L16.1702 45.8293C23.9022 45.8293 30.1702 52.0974 30.1702 59.8293L31.1702 59.8293ZM16.1702 44.8293L16.1702 43.8293C15.339 43.8293 14.522 43.8928 13.7239 44.0154L13.8757 45.0038L14.0274 45.9922C14.7254 45.885 15.441 45.8293 16.1702 45.8293L16.1702 44.8293ZM9.17017 41.5806H10.1702V12.8293H9.17017H8.17017V41.5806H9.17017ZM12.1702 9.82935V10.8293H106.17V9.82935V8.82935H12.1702V9.82935ZM109.17 12.8293H108.17V106.829H109.17H110.17V12.8293H109.17ZM106.17 9.82935V10.8293C107.275 10.8293 108.17 11.7248 108.17 12.8293H109.17H110.17C110.17 10.6202 108.379 8.82935 106.17 8.82935V9.82935ZM9.17017 78.0773H10.1702C10.1702 77.3442 10.565 76.6854 11.2513 76.2141C11.946 75.7371 12.8669 75.5114 13.7237 75.6431L13.8756 74.6547L14.0275 73.6663C12.6506 73.4546 11.2188 73.8103 10.1192 74.5654C9.01116 75.3263 8.17017 76.5504 8.17017 78.0773H9.17017ZM12.1702 109.829V108.829C11.0656 108.829 10.1702 107.934 10.1702 106.829H9.17017H8.17017C8.17017 109.038 9.96103 110.829 12.1702 110.829V109.829ZM9.17017 12.8293H10.1702C10.1702 11.7248 11.0656 10.8293 12.1702 10.8293V9.82935V8.82935C9.96103 8.82935 8.17017 10.6202 8.17017 12.8293H9.17017ZM77.4181 109.829V108.829C75.8912 108.829 74.6671 109.67 73.9062 110.778C73.1511 111.878 72.7955 113.31 73.0071 114.687L73.9955 114.535L74.9839 114.383C74.8522 113.526 75.0779 112.605 75.5549 111.911C76.0262 111.224 76.685 110.829 77.4181 110.829V109.829ZM44.3448 114.535L45.3332 114.687C45.5449 113.31 45.1892 111.878 44.4341 110.778C43.6732 109.67 42.4491 108.829 40.9222 108.829V109.829V110.829C41.6553 110.829 42.3141 111.224 42.7854 111.911C43.2624 112.605 43.4881 113.526 43.3564 114.383L44.3448 114.535ZM13.8757 45.0038L13.7239 44.0154C12.8671 44.147 11.9461 43.9211 11.2514 43.444C10.5651 42.9726 10.1702 42.3136 10.1702 41.5806H9.17017H8.17017C8.17017 43.1075 9.01117 44.3316 10.1191 45.0926C11.2187 45.8478 12.6505 46.2037 14.0274 45.9922L13.8757 45.0038ZM106.17 109.829V110.829C108.379 110.829 110.17 109.038 110.17 106.829H109.17H108.17C108.17 107.934 107.275 108.829 106.17 108.829V109.829Z" fill="black" mask="url(#path-2-inside-1_1_24)"/>
</svg>
