<svg width="131" height="144" viewBox="0 0 131 144" fill="none" xmlns="http://www.w3.org/2000/svg">
<mask id="path-2-inside-1_1_26" fill="white">
<path d="M131 72C131 80.2843 124.284 87 116 87C115.22 87 114.453 86.9403 113.705 86.8253C111.472 86.482 109 87.988 109 90.2479L109 119C109 120.657 107.657 122 106 122L77.2487 122C74.9888 122 73.4825 124.472 73.8255 126.706C73.9404 127.454 74 128.22 74 129C74 137.284 67.2843 144 59 144C50.7157 144 44 137.284 44 129C44 128.22 44.0597 127.453 44.1747 126.705C44.518 124.472 43.012 122 40.7521 122L12 122C10.3431 122 9 120.657 9 119L9 90.2479C9 87.988 11.4717 86.482 13.7054 86.8253C14.4535 86.9403 15.2198 87 16 87C24.2843 87 31 80.2843 31 72C31 63.7157 24.2843 57 16 57C15.2198 57 14.4535 57.0597 13.7054 57.1747C11.4717 57.518 9 56.012 9 53.7521L9 25C9 23.3431 10.3431 22 12 22L40.7521 22C43.012 22 44.518 19.5283 44.1747 17.2946C44.0597 16.5465 44 15.7802 44 15C44 6.71573 50.7157 1.48404e-06 59 8.58591e-07C67.2843 2.33146e-07 74 6.71573 74 15C74 15.7802 73.9404 16.5465 73.8255 17.2945C73.4825 19.5282 74.9888 22 77.2487 22L106 22C107.657 22 109 23.3431 109 25L109 53.7521C109 56.012 111.472 57.518 113.705 57.1747C114.453 57.0597 115.22 57 116 57C124.284 57 131 63.7157 131 72Z"/>
</mask>
<path d="M131 72C131 80.2843 124.284 87 116 87C115.22 87 114.453 86.9403 113.705 86.8253C111.472 86.482 109 87.988 109 90.2479L109 119C109 120.657 107.657 122 106 122L77.2487 122C74.9888 122 73.4825 124.472 73.8255 126.706C73.9404 127.454 74 128.22 74 129C74 137.284 67.2843 144 59 144C50.7157 144 44 137.284 44 129C44 128.22 44.0597 127.453 44.1747 126.705C44.518 124.472 43.012 122 40.7521 122L12 122C10.3431 122 9 120.657 9 119L9 90.2479C9 87.988 11.4717 86.482 13.7054 86.8253C14.4535 86.9403 15.2198 87 16 87C24.2843 87 31 80.2843 31 72C31 63.7157 24.2843 57 16 57C15.2198 57 14.4535 57.0597 13.7054 57.1747C11.4717 57.518 9 56.012 9 53.7521L9 25C9 23.3431 10.3431 22 12 22L40.7521 22C43.012 22 44.518 19.5283 44.1747 17.2946C44.0597 16.5465 44 15.7802 44 15C44 6.71573 50.7157 1.48404e-06 59 8.58591e-07C67.2843 2.33146e-07 74 6.71573 74 15C74 15.7802 73.9404 16.5465 73.8255 17.2945C73.4825 19.5282 74.9888 22 77.2487 22L106 22C107.657 22 109 23.3431 109 25L109 53.7521C109 56.012 111.472 57.518 113.705 57.1747C114.453 57.0597 115.22 57 116 57C124.284 57 131 63.7157 131 72Z" fill="white"/>
<path d="M131 72L132 72L131 72ZM116 87L116 86L116 87ZM74 129L75 129V129L74 129ZM44 129L45 129L44 129ZM16 87L16 86L16 87ZM31 72L32 72L31 72ZM16 57L16 56H16L16 57ZM44 15L43 15L43 15L44 15ZM59 8.58591e-07L59 -0.999999L59 8.58591e-07ZM74 15L73 15L74 15ZM116 57L116 56H116L116 57ZM113.705 57.1747L113.857 58.163L113.705 57.1747ZM44.1747 17.2946L43.1863 17.4465L44.1747 17.2946ZM13.7054 86.8253L13.5535 87.8137L13.7054 86.8253ZM73.8255 17.2945L74.814 17.4463L73.8255 17.2945ZM73.8255 126.706L74.814 126.554L73.8255 126.706ZM44.1747 126.705L43.1863 126.554L44.1747 126.705ZM40.7521 122L40.7521 121L40.7521 122ZM13.7054 57.1747L13.8574 58.163L13.7054 57.1747ZM113.705 86.8253L113.857 85.837L113.705 86.8253ZM131 72L130 72C130 79.732 123.732 86 116 86L116 87L116 88C124.837 88 132 80.8366 132 72L131 72ZM116 87L116 86C115.271 86 114.555 85.9442 113.857 85.837L113.705 86.8253L113.554 87.8137C114.352 87.9364 115.169 88 116 88L116 87ZM109 90.2479L108 90.2479L108 119L109 119L110 119L110 90.2479L109 90.2479ZM106 122L106 121L77.2487 121L77.2487 122L77.2487 123L106 123L106 122ZM73.8255 126.706L72.8371 126.857C72.9443 127.555 73 128.271 73 129L74 129L75 129C75 128.169 74.9365 127.352 74.814 126.554L73.8255 126.706ZM74 129L73 129C73 136.732 66.732 143 59 143L59 144L59 145C67.8366 145 75 137.837 75 129L74 129ZM59 144L59 143C51.268 143 45 136.732 45 129L44 129L43 129C43 137.837 50.1634 145 59 145L59 144ZM44 129L45 129C45 128.271 45.0558 127.555 45.163 126.857L44.1747 126.705L43.1863 126.554C43.0636 127.352 43 128.169 43 129L44 129ZM40.7521 122L40.7521 121L12 121L12 122L12 123L40.7521 123L40.7521 122ZM9 119L10 119L10 90.2479L9 90.2479L8 90.2479L8 119L9 119ZM13.7054 86.8253L13.5535 87.8137C14.3516 87.9364 15.1687 88 16 88L16 87L16 86C15.2708 86 14.5553 85.9442 13.8574 85.837L13.7054 86.8253ZM16 87L16 88C24.8366 88 32 80.8366 32 72L31 72L30 72C30 79.732 23.732 86 16 86L16 87ZM31 72L32 72C32 63.1634 24.8366 56 16 56L16 57L16 58C23.732 58 30 64.268 30 72L31 72ZM16 57L16 56C15.1687 56 14.3516 56.0636 13.5535 56.1863L13.7054 57.1747L13.8574 58.163C14.5553 58.0558 15.2708 58 16 58L16 57ZM9 53.7521L10 53.7521L10 25L9 25L8 25L8 53.7521L9 53.7521ZM12 22L12 23L40.7521 23L40.7521 22L40.7521 21L12 21L12 22ZM44.1747 17.2946L45.163 17.1426C45.0558 16.4447 45 15.7292 45 15L44 15L43 15C43 15.8313 43.0636 16.6484 43.1863 17.4465L44.1747 17.2946ZM44 15L45 15C45 7.26802 51.268 1 59 1L59 8.58591e-07L59 -0.999999C50.1634 -0.999998 43 6.16345 43 15L44 15ZM59 8.58591e-07L59 1C66.732 1 73 7.26801 73 15L74 15L75 15C75 6.16344 67.8366 -1 59 -0.999999L59 8.58591e-07ZM74 15L73 15C73 15.7292 72.9443 16.4447 72.8371 17.1427L73.8255 17.2945L74.814 17.4463C74.9365 16.6482 75 15.8312 75 15L74 15ZM77.2487 22L77.2487 23L106 23L106 22L106 21L77.2487 21L77.2487 22ZM109 25L108 25L108 53.7521L109 53.7521L110 53.7521L110 25L109 25ZM113.705 57.1747L113.857 58.163C114.555 58.0558 115.271 58 116 58L116 57L116 56C115.169 56 114.352 56.0636 113.554 56.1863L113.705 57.1747ZM116 57L116 58C123.732 58 130 64.268 130 72L131 72L132 72C132 63.1634 124.837 56 116 56L116 57ZM109 53.7521L108 53.7521C108 55.2789 108.841 56.5031 109.949 57.2639C111.049 58.0191 112.48 58.3747 113.857 58.163L113.705 57.1747L113.554 56.1863C112.697 56.318 111.776 56.0923 111.081 55.6152C110.395 55.144 110 54.4851 110 53.7521L109 53.7521ZM40.7521 22L40.7521 23C42.2789 23 43.5031 22.159 44.2639 21.051C45.0191 19.9514 45.3747 18.5196 45.163 17.1426L44.1747 17.2946L43.1863 17.4465C43.318 18.3033 43.0923 19.2242 42.6152 19.9188C42.144 20.6051 41.4851 21 40.7521 21L40.7521 22ZM106 22L106 23C107.105 23 108 23.8954 108 25L109 25L110 25C110 22.7909 108.209 21 106 21L106 22ZM9 90.2479L10 90.2479C10 89.5149 10.3949 88.856 11.0812 88.3848C11.7758 87.9077 12.6967 87.682 13.5535 87.8137L13.7054 86.8253L13.8574 85.837C12.4804 85.6253 11.0486 85.9809 9.949 86.7361C8.841 87.4969 8 88.7211 8 90.2479L9 90.2479ZM73.8255 17.2945L72.8371 17.1427C72.6257 18.5197 72.9815 19.9514 73.7368 21.051C74.4977 22.159 75.7219 23 77.2487 23L77.2487 22L77.2487 21C76.5157 21 75.8568 20.6051 75.3854 19.9187C74.9082 19.224 74.6824 18.3031 74.814 17.4463L73.8255 17.2945ZM12 122L12 121C10.8954 121 10 120.105 10 119L9 119L8 119C8 121.209 9.79086 123 12 123L12 122ZM9 25L10 25C10 23.8954 10.8954 23 12 23L12 22L12 21C9.79086 21 8 22.7909 8 25L9 25ZM77.2487 122L77.2487 121C75.7219 121 74.4977 121.841 73.7368 122.949C72.9815 124.049 72.6257 125.48 72.8371 126.857L73.8255 126.706L74.814 126.554C74.6824 125.697 74.9082 124.776 75.3854 124.081C75.8568 123.395 76.5157 123 77.2487 123L77.2487 122ZM44.1747 126.705L45.163 126.857C45.3747 125.48 45.0191 124.049 44.2639 122.949C43.5031 121.841 42.2789 121 40.7521 121L40.7521 122L40.7521 123C41.4851 123 42.144 123.395 42.6152 124.081C43.0923 124.776 43.318 125.697 43.1863 126.554L44.1747 126.705ZM13.7054 57.1747L13.5535 56.1863C12.6967 56.318 11.7758 56.0923 11.0812 55.6152C10.3949 55.144 10 54.4851 10 53.7521L9 53.7521L8 53.7521C8 55.2789 8.841 56.5031 9.94899 57.2639C11.0486 58.0191 12.4804 58.3747 13.8574 58.163L13.7054 57.1747ZM109 119L108 119C108 120.105 107.105 121 106 121L106 122L106 123C108.209 123 110 121.209 110 119L109 119ZM113.705 86.8253L113.857 85.837C112.48 85.6253 111.049 85.9809 109.949 86.7361C108.841 87.4969 108 88.7211 108 90.2479L109 90.2479L110 90.2479C110 89.5149 110.395 88.856 111.081 88.3848C111.776 87.9077 112.697 87.682 113.554 87.8137L113.705 86.8253Z" fill="black" mask="url(#path-2-inside-1_1_26)"/>
</svg>
