<svg width="144" height="131" viewBox="0 0 144 131" fill="none" xmlns="http://www.w3.org/2000/svg">
<mask id="path-2-inside-1_1_30" fill="white">
<path d="M122 40.7513C122 43.0112 124.472 44.5175 126.706 44.1745C127.454 44.0596 128.22 44 129 44C137.284 44 144 50.7157 144 59C144 67.2843 137.284 74 129 74C128.22 74 127.453 73.9403 126.705 73.8253C124.472 73.482 122 74.988 122 77.2479V106C122 107.657 120.657 109 119 109H90.2479C87.988 109 86.482 111.472 86.8253 113.705C86.9403 114.453 87 115.22 87 116C87 124.284 80.2843 131 72 131C63.7157 131 57 124.284 57 116C57 115.22 57.0597 114.453 57.1747 113.705C57.518 111.472 56.012 109 53.7521 109H25C23.3431 109 22 107.657 22 106L22 77.2479C22 74.988 19.5283 73.482 17.2946 73.8253C16.5465 73.9403 15.7802 74 15 74C6.71573 74 5.26656e-07 67.2843 0 59C-5.26656e-07 50.7157 6.71573 44 15 44C15.7802 44 16.5465 44.0596 17.2945 44.1745C19.5282 44.5175 22 43.0112 22 40.7513L22 12C22 10.3431 23.3431 9 25 9L119 9C120.657 9 122 10.3431 122 12V40.7513Z"/>
</mask>
<path d="M122 40.7513C122 43.0112 124.472 44.5175 126.706 44.1745C127.454 44.0596 128.22 44 129 44C137.284 44 144 50.7157 144 59C144 67.2843 137.284 74 129 74C128.22 74 127.453 73.9403 126.705 73.8253C124.472 73.482 122 74.988 122 77.2479V106C122 107.657 120.657 109 119 109H90.2479C87.988 109 86.482 111.472 86.8253 113.705C86.9403 114.453 87 115.22 87 116C87 124.284 80.2843 131 72 131C63.7157 131 57 124.284 57 116C57 115.22 57.0597 114.453 57.1747 113.705C57.518 111.472 56.012 109 53.7521 109H25C23.3431 109 22 107.657 22 106L22 77.2479C22 74.988 19.5283 73.482 17.2946 73.8253C16.5465 73.9403 15.7802 74 15 74C6.71573 74 5.26656e-07 67.2843 0 59C-5.26656e-07 50.7157 6.71573 44 15 44C15.7802 44 16.5465 44.0596 17.2945 44.1745C19.5282 44.5175 22 43.0112 22 40.7513L22 12C22 10.3431 23.3431 9 25 9L119 9C120.657 9 122 10.3431 122 12V40.7513Z" fill="white"/>
<path d="M129 44L129 43H129L129 44ZM129 74L129 73L129 74ZM87 116L88 116V116L87 116ZM72 131L72 132L72 131ZM57 116L58 116L57 116ZM15 74L15 75L15 75L15 74ZM0 59L-1 59L0 59ZM15 44L15 45L15 44ZM119 9V10V9ZM17.2946 73.8253L17.4465 74.8137L17.2946 73.8253ZM25 9V10V9ZM86.8253 113.705L85.837 113.857L86.8253 113.705ZM126.705 73.8253L126.554 74.8137L126.705 73.8253ZM57.1747 113.705L58.163 113.857L57.1747 113.705ZM17.2945 44.1745L17.1427 45.1629L17.2945 44.1745ZM126.706 44.1745L126.857 45.1629C127.555 45.0557 128.271 45 129 45L129 44L129 43C128.169 43 127.352 43.0635 126.554 43.186L126.706 44.1745ZM129 44L129 45C136.732 45 143 51.268 143 59L144 59L145 59C145 50.1634 137.837 43 129 43L129 44ZM144 59L143 59C143 66.732 136.732 73 129 73L129 74L129 75C137.837 75 145 67.8366 145 59L144 59ZM129 74L129 73C128.271 73 127.555 72.9442 126.857 72.837L126.705 73.8253L126.554 74.8137C127.352 74.9364 128.169 75 129 75L129 74ZM122 77.2479H121V106H122H123V77.2479H122ZM119 109V108H90.2479V109V110H119V109ZM86.8253 113.705L85.837 113.857C85.9442 114.555 86 115.271 86 116L87 116L88 116C88 115.169 87.9364 114.352 87.8137 113.554L86.8253 113.705ZM87 116L86 116C86 123.732 79.732 130 72 130L72 131L72 132C80.8366 132 88 124.837 88 116L87 116ZM72 131L72 130C64.268 130 58 123.732 58 116L57 116L56 116C56 124.837 63.1634 132 72 132L72 131ZM57 116L58 116C58 115.271 58.0558 114.555 58.163 113.857L57.1747 113.705L56.1863 113.554C56.0636 114.352 56 115.169 56 116L57 116ZM53.7521 109V108H25V109V110H53.7521V109ZM22 106H23L23 77.2479H22H21L21 106H22ZM17.2946 73.8253L17.1426 72.837C16.4447 72.9442 15.7292 73 15 73L15 74L15 75C15.8313 75 16.6484 74.9364 17.4465 74.8137L17.2946 73.8253ZM15 74L15 73C7.26801 73 1 66.732 1 59L0 59L-1 59C-0.999999 67.8366 6.16344 75 15 75L15 74ZM0 59L1 59C1 51.268 7.26801 45 15 45L15 44L15 43C6.16344 43 -1 50.1634 -1 59L0 59ZM15 44L15 45C15.7292 45 16.4447 45.0557 17.1427 45.1629L17.2945 44.1745L17.4463 43.186C16.6482 43.0635 15.8312 43 15 43L15 44ZM22 40.7513H23L23 12H22H21L21 40.7513H22ZM25 9V10L119 10V9V8L25 8V9ZM122 12H121V40.7513H122H123V12H122ZM119 9V10C120.105 10 121 10.8954 121 12H122H123C123 9.79086 121.209 8 119 8V9ZM22 77.2479H23C23 75.7211 22.159 74.4969 21.051 73.7361C19.9514 72.9809 18.5196 72.6253 17.1426 72.837L17.2946 73.8253L17.4465 74.8137C18.3033 74.682 19.2242 74.9077 19.9188 75.3848C20.6051 75.856 21 76.5149 21 77.2479H22ZM22 12H23C23 10.8954 23.8954 10 25 10V9V8C22.7909 8 21 9.79086 21 12H22ZM90.2479 109V108C88.7211 108 87.4969 108.841 86.7361 109.949C85.9809 111.049 85.6253 112.48 85.837 113.857L86.8253 113.705L87.8137 113.554C87.682 112.697 87.9077 111.776 88.3848 111.081C88.856 110.395 89.5149 110 90.2479 110V109ZM126.705 73.8253L126.857 72.837C125.48 72.6253 124.049 72.9809 122.949 73.7361C121.841 74.4969 121 75.7211 121 77.2479H122H123C123 76.5149 123.395 75.856 124.081 75.3848C124.776 74.9077 125.697 74.682 126.554 74.8137L126.705 73.8253ZM57.1747 113.705L58.163 113.857C58.3747 112.48 58.0191 111.049 57.2639 109.949C56.5031 108.841 55.2789 108 53.7521 108V109V110C54.4851 110 55.144 110.395 55.6152 111.081C56.0923 111.776 56.318 112.697 56.1863 113.554L57.1747 113.705ZM17.2945 44.1745L17.1427 45.1629C18.5197 45.3743 19.9514 45.0185 21.051 44.2632C22.159 43.5023 23 42.2781 23 40.7513H22H21C21 41.4843 20.6051 42.1432 19.9187 42.6146C19.224 43.0918 18.3031 43.3176 17.4463 43.186L17.2945 44.1745ZM122 106H121C121 107.105 120.105 108 119 108V109V110C121.209 110 123 108.209 123 106H122ZM25 109V108C23.8954 108 23 107.105 23 106H22H21C21 108.209 22.7909 110 25 110V109ZM126.706 44.1745L126.554 43.186C125.697 43.3176 124.776 43.0918 124.081 42.6146C123.395 42.1432 123 41.4843 123 40.7513H122H121C121 42.2781 121.841 43.5023 122.949 44.2632C124.049 45.0185 125.48 45.3743 126.857 45.1629L126.706 44.1745Z" fill="black" mask="url(#path-2-inside-1_1_30)"/>
</svg>
