<svg width="131" height="131" viewBox="0 0 131 131" fill="none" xmlns="http://www.w3.org/2000/svg">
<mask id="path-2-inside-1_1_28" fill="white">
<path d="M59 131C50.7157 131 44 124.284 44 116C44 115.22 44.0597 114.453 44.1747 113.705C44.518 111.472 43.012 109 40.7521 109L12 109C10.3431 109 9 107.657 9 106L9 77.2488C9 74.9889 11.4718 73.4825 13.7055 73.8256C14.4535 73.9404 15.2198 74 16 74C24.2843 74 31 67.2843 31 59C31 50.7157 24.2843 44 16 44C15.2197 44 14.4535 44.0597 13.7054 44.1747C11.4717 44.518 8.99999 43.012 8.99999 40.7521L8.99999 12C8.99999 10.3432 10.3431 9.00001 12 9.00001L40.752 9.00001C43.012 9.00001 44.518 11.4717 44.1746 13.7054C44.0597 14.4535 44 15.2198 44 16C44 24.2843 50.7157 31 59 31C67.2843 31 74 24.2843 74 16C74 15.2198 73.9403 14.4535 73.8253 13.7054C73.482 11.4717 74.988 9 77.2479 9L106 9C107.657 9 109 10.3431 109 12L109 40.7521C109 43.012 111.472 44.518 113.705 44.1747C114.453 44.0597 115.22 44 116 44C124.284 44 131 50.7157 131 59C131 67.2843 124.284 74 116 74C115.22 74 114.454 73.9404 113.705 73.8255C111.472 73.4825 109 74.9888 109 77.2488L109 106C109 107.657 107.657 109 106 109L77.2479 109C74.988 109 73.482 111.472 73.8253 113.705C73.9403 114.453 74 115.22 74 116C74 124.284 67.2843 131 59 131Z"/>
</mask>
<path d="M59 131C50.7157 131 44 124.284 44 116C44 115.22 44.0597 114.453 44.1747 113.705C44.518 111.472 43.012 109 40.7521 109L12 109C10.3431 109 9 107.657 9 106L9 77.2488C9 74.9889 11.4718 73.4825 13.7055 73.8256C14.4535 73.9404 15.2198 74 16 74C24.2843 74 31 67.2843 31 59C31 50.7157 24.2843 44 16 44C15.2197 44 14.4535 44.0597 13.7054 44.1747C11.4717 44.518 8.99999 43.012 8.99999 40.7521L8.99999 12C8.99999 10.3432 10.3431 9.00001 12 9.00001L40.752 9.00001C43.012 9.00001 44.518 11.4717 44.1746 13.7054C44.0597 14.4535 44 15.2198 44 16C44 24.2843 50.7157 31 59 31C67.2843 31 74 24.2843 74 16C74 15.2198 73.9403 14.4535 73.8253 13.7054C73.482 11.4717 74.988 9 77.2479 9L106 9C107.657 9 109 10.3431 109 12L109 40.7521C109 43.012 111.472 44.518 113.705 44.1747C114.453 44.0597 115.22 44 116 44C124.284 44 131 50.7157 131 59C131 67.2843 124.284 74 116 74C115.22 74 114.454 73.9404 113.705 73.8255C111.472 73.4825 109 74.9888 109 77.2488L109 106C109 107.657 107.657 109 106 109L77.2479 109C74.988 109 73.482 111.472 73.8253 113.705C73.9403 114.453 74 115.22 74 116C74 124.284 67.2843 131 59 131Z" fill="white"/>
<path d="M59 131L59 132L59 131ZM44 116L45 116L44 116ZM16 74L16 75L16 74ZM16 44L16 43L16 43L16 44ZM44 16L45 16L44 16ZM59 31L59 32L59 31ZM74 16L75 16V16L74 16ZM116 44L116 43L116 43L116 44ZM131 59L132 59L131 59ZM116 74L116 73L116 74ZM74 116L75 116V116L74 116ZM73.8253 113.705L72.837 113.857L73.8253 113.705ZM113.705 44.1747L113.554 43.1863L113.705 44.1747ZM44.1746 13.7054L43.1863 13.5535L44.1746 13.7054ZM113.705 73.8255L113.857 72.8371L113.705 73.8255ZM13.7054 44.1747L13.8574 45.1631L13.7054 44.1747ZM73.8253 13.7054L72.8369 13.8574L73.8253 13.7054ZM44.1747 113.705L45.163 113.857L44.1747 113.705ZM59 131L59 130C51.268 130 45 123.732 45 116L44 116L43 116C43 124.837 50.1634 132 59 132L59 131ZM44 116L45 116C45 115.271 45.0558 114.555 45.163 113.857L44.1747 113.705L43.1863 113.554C43.0636 114.352 43 115.169 43 116L44 116ZM40.7521 109L40.7521 108L12 108L12 109L12 110L40.7521 110L40.7521 109ZM9 106L10 106L10 77.2488L9 77.2488L8 77.2488L8 106L9 106ZM13.7055 73.8256L13.5537 74.814C14.3518 74.9365 15.1688 75 16 75L16 74L16 73C15.2708 73 14.5553 72.9443 13.8573 72.8371L13.7055 73.8256ZM16 74L16 75C24.8366 75 32 67.8366 32 59L31 59L30 59C30 66.732 23.732 73 16 73L16 74ZM31 59L32 59C32 50.1635 24.8365 43 16 43L16 44L16 45C23.732 45 30 51.268 30 59L31 59ZM16 44L16 43C15.1687 43 14.3516 43.0636 13.5535 43.1863L13.7054 44.1747L13.8574 45.1631C14.5553 45.0558 15.2708 45 16 45L16 44ZM8.99999 40.7521L9.99999 40.7521L9.99999 12L8.99999 12L7.99999 12L7.99999 40.7521L8.99999 40.7521ZM12 9.00001L12 10L40.752 10L40.752 9.00001L40.752 8.00001L12 8.00001L12 9.00001ZM44.1746 13.7054L43.1863 13.5535C43.0636 14.3516 43 15.1687 43 16L44 16L45 16C45 15.2708 45.0558 14.5553 45.163 13.8574L44.1746 13.7054ZM44 16L43 16C43 24.8366 50.1634 32 59 32L59 31L59 30C51.268 30 45 23.732 45 16L44 16ZM59 31L59 32C67.8365 32 75 24.8366 75 16L74 16L73 16C73 23.732 66.732 30 59 30L59 31ZM74 16L75 16C75 15.1687 74.9364 14.3516 74.8137 13.5535L73.8253 13.7054L72.8369 13.8574C72.9442 14.5553 73 15.2708 73 16L74 16ZM77.2479 9L77.2479 10L106 10L106 9L106 8L77.2479 8L77.2479 9ZM109 12L108 12L108 40.7521L109 40.7521L110 40.7521L110 12L109 12ZM113.705 44.1747L113.857 45.163C114.555 45.0558 115.271 45 116 45L116 44L116 43C115.169 43 114.352 43.0636 113.554 43.1863L113.705 44.1747ZM116 44L116 45C123.732 45 130 51.268 130 59L131 59L132 59C132 50.1634 124.837 43 116 43L116 44ZM131 59L130 59C130 66.732 123.732 73 116 73L116 74L116 75C124.837 75 132 67.8366 132 59L131 59ZM116 74L116 73C115.271 73 114.555 72.9443 113.857 72.8371L113.705 73.8255L113.554 74.814C114.352 74.9365 115.169 75 116 75L116 74ZM109 77.2488L108 77.2488L108 106L109 106L110 106L110 77.2488L109 77.2488ZM106 109L106 108L77.2479 108L77.2479 109L77.2479 110L106 110L106 109ZM73.8253 113.705L72.837 113.857C72.9442 114.555 73 115.271 73 116L74 116L75 116C75 115.169 74.9364 114.352 74.8137 113.554L73.8253 113.705ZM74 116L73 116C73 123.732 66.732 130 59 130L59 131L59 132C67.8366 132 75 124.837 75 116L74 116ZM77.2479 109L77.2479 108C75.7211 108 74.4969 108.841 73.7361 109.949C72.9809 111.049 72.6253 112.48 72.837 113.857L73.8253 113.705L74.8137 113.554C74.682 112.697 74.9077 111.776 75.3848 111.081C75.856 110.395 76.5149 110 77.2479 110L77.2479 109ZM109 40.7521L108 40.7521C108 42.2789 108.841 43.5031 109.949 44.2639C111.049 45.0191 112.48 45.3747 113.857 45.163L113.705 44.1747L113.554 43.1863C112.697 43.318 111.776 43.0923 111.081 42.6152C110.395 42.144 110 41.4851 110 40.7521L109 40.7521ZM109 106L108 106C108 107.105 107.105 108 106 108L106 109L106 110C108.209 110 110 108.209 110 106L109 106ZM40.752 9.00001L40.752 10C41.4851 10 42.144 10.3949 42.6152 11.0812C43.0923 11.7758 43.318 12.6967 43.1863 13.5535L44.1746 13.7054L45.163 13.8574C45.3747 12.4805 45.0191 11.0486 44.2639 9.949C43.5031 8.841 42.2789 8.00001 40.752 8.00001L40.752 9.00001ZM113.705 73.8255L113.857 72.8371C112.48 72.6257 111.049 72.9815 109.949 73.7368C108.841 74.4977 108 75.7219 108 77.2488L109 77.2488L110 77.2488C110 76.5157 110.395 75.8568 111.081 75.3854C111.776 74.9082 112.697 74.6824 113.554 74.814L113.705 73.8255ZM8.99999 12L9.99999 12C9.99999 10.8954 10.8954 10 12 10L12 9.00001L12 8.00001C9.79085 8.00001 7.99999 9.79087 7.99999 12L8.99999 12ZM106 9L106 10C107.105 10 108 10.8954 108 12L109 12L110 12C110 9.79086 108.209 8 106 8L106 9ZM9 77.2488L10 77.2488C10 76.5157 10.3949 75.8568 11.0812 75.3854C11.776 74.9082 12.6969 74.6824 13.5537 74.814L13.7055 73.8256L13.8573 72.8371C12.4803 72.6257 11.0485 72.9815 9.94895 73.7368C8.841 74.4977 8 75.7219 8 77.2488L9 77.2488ZM13.7054 44.1747L13.5535 43.1863C12.6967 43.318 11.7758 43.0923 11.0812 42.6153C10.3949 42.144 9.99999 41.4851 9.99999 40.7521L8.99999 40.7521L7.99999 40.7521C7.99999 42.279 8.84099 43.5031 9.94899 44.264C11.0486 45.0191 12.4804 45.3747 13.8574 45.1631L13.7054 44.1747ZM73.8253 13.7054L74.8137 13.5535C74.682 12.6967 74.9077 11.7758 75.3847 11.0812C75.856 10.3949 76.5149 10 77.2479 10L77.2479 9L77.2479 8C75.721 8 74.4969 8.841 73.736 9.949C72.9809 11.0486 72.6253 12.4804 72.8369 13.8574L73.8253 13.7054ZM12 109L12 108C10.8954 108 10 107.105 10 106L9 106L8 106C8 108.209 9.79086 110 12 110L12 109ZM44.1747 113.705L45.163 113.857C45.3747 112.48 45.0191 111.049 44.2639 109.949C43.5031 108.841 42.2789 108 40.7521 108L40.7521 109L40.7521 110C41.4851 110 42.144 110.395 42.6152 111.081C43.0923 111.776 43.318 112.697 43.1863 113.554L44.1747 113.705Z" fill="black" mask="url(#path-2-inside-1_1_28)"/>
</svg>
