<svg width="131" height="118" viewBox="0 0 131 118" fill="none" xmlns="http://www.w3.org/2000/svg">
<mask id="path-2-inside-1_1_25" fill="white">
<path d="M131 59C131 67.2843 124.284 74 116 74C115.22 74 114.453 73.9403 113.705 73.8253C111.472 73.482 109 74.988 109 77.2479L109 106C109 107.657 107.657 109 106 109L77.2487 109C74.9888 109 73.4825 106.528 73.8255 104.294C73.9404 103.546 74 102.78 74 102C74 93.7157 67.2843 87 59 87C50.7157 87 44 93.7157 44 102C44 102.78 44.0597 103.547 44.1747 104.295C44.518 106.528 43.012 109 40.7521 109L12 109C10.3431 109 9 107.657 9 106L9 77.2479C9 74.988 11.4717 73.482 13.7054 73.8253C14.4535 73.9403 15.2198 74 16 74C24.2843 74 31 67.2843 31 59C31 50.7157 24.2843 44 16 44C15.2198 44 14.4535 44.0597 13.7054 44.1747C11.4717 44.518 9 43.012 9 40.7521L9 12C9 10.3431 10.3431 8.99999 12 8.99999L40.7521 9C43.012 9 44.518 11.4717 44.1747 13.7054C44.0597 14.4535 44 15.2198 44 16C44 24.2843 50.7157 31 59 31C67.2843 31 74 24.2843 74 16C74 15.2198 73.9404 14.4535 73.8255 13.7055C73.4825 11.4718 74.9888 9 77.2487 9L106 9C107.657 9 109 10.3431 109 12L109 40.7521C109 43.012 111.472 44.518 113.705 44.1747C114.453 44.0597 115.22 44 116 44C124.284 44 131 50.7157 131 59Z"/>
</mask>
<path d="M131 59C131 67.2843 124.284 74 116 74C115.22 74 114.453 73.9403 113.705 73.8253C111.472 73.482 109 74.988 109 77.2479L109 106C109 107.657 107.657 109 106 109L77.2487 109C74.9888 109 73.4825 106.528 73.8255 104.294C73.9404 103.546 74 102.78 74 102C74 93.7157 67.2843 87 59 87C50.7157 87 44 93.7157 44 102C44 102.78 44.0597 103.547 44.1747 104.295C44.518 106.528 43.012 109 40.7521 109L12 109C10.3431 109 9 107.657 9 106L9 77.2479C9 74.988 11.4717 73.482 13.7054 73.8253C14.4535 73.9403 15.2198 74 16 74C24.2843 74 31 67.2843 31 59C31 50.7157 24.2843 44 16 44C15.2198 44 14.4535 44.0597 13.7054 44.1747C11.4717 44.518 9 43.012 9 40.7521L9 12C9 10.3431 10.3431 8.99999 12 8.99999L40.7521 9C43.012 9 44.518 11.4717 44.1747 13.7054C44.0597 14.4535 44 15.2198 44 16C44 24.2843 50.7157 31 59 31C67.2843 31 74 24.2843 74 16C74 15.2198 73.9404 14.4535 73.8255 13.7055C73.4825 11.4718 74.9888 9 77.2487 9L106 9C107.657 9 109 10.3431 109 12L109 40.7521C109 43.012 111.472 44.518 113.705 44.1747C114.453 44.0597 115.22 44 116 44C124.284 44 131 50.7157 131 59Z" fill="white"/>
<path d="M116 74L116 73L116 74ZM74 102L75 102L74 102ZM44 102L43 102V102L44 102ZM16 74L16 73L16 74ZM31 59L32 59L31 59ZM16 44L16 43H16L16 44ZM44 16L45 16L44 16ZM74 16L75 16V16L74 16ZM116 44L116 43H116L116 44ZM113.705 44.1747L113.857 45.163L113.705 44.1747ZM44.1747 13.7054L43.1863 13.5535L44.1747 13.7054ZM13.7054 73.8253L13.5535 74.8137L13.7054 73.8253ZM44.1747 104.295L45.163 104.143L44.1747 104.295ZM13.7054 44.1747L13.8574 45.163L13.7054 44.1747ZM113.705 73.8253L113.857 72.837L113.705 73.8253ZM131 59L130 59C130 66.732 123.732 73 116 73L116 74L116 75C124.837 75 132 67.8366 132 59L131 59ZM116 74L116 73C115.271 73 114.555 72.9442 113.857 72.837L113.705 73.8253L113.554 74.8137C114.352 74.9364 115.169 75 116 75L116 74ZM109 77.2479L108 77.2479L108 106L109 106L110 106L110 77.2479L109 77.2479ZM106 109L106 108L77.2487 108L77.2487 109L77.2487 110L106 110L106 109ZM73.8255 104.294L74.814 104.446C74.9365 103.648 75 102.831 75 102L74 102L73 102C73 102.729 72.9443 103.445 72.8371 104.143L73.8255 104.294ZM74 102L75 102C75 93.1634 67.8366 86 59 86L59 87L59 88C66.732 88 73 94.268 73 102L74 102ZM59 87L59 86C50.1634 86 43 93.1634 43 102L44 102L45 102C45 94.268 51.268 88 59 88L59 87ZM44 102L43 102C43 102.831 43.0636 103.648 43.1863 104.446L44.1747 104.295L45.163 104.143C45.0558 103.445 45 102.729 45 102L44 102ZM40.7521 109L40.7521 108L12 108L12 109L12 110L40.7521 110L40.7521 109ZM9 106L10 106L10 77.2479L9 77.2479L8 77.2479L8 106L9 106ZM13.7054 73.8253L13.5535 74.8137C14.3516 74.9364 15.1687 75 16 75L16 74L16 73C15.2708 73 14.5553 72.9442 13.8574 72.8369L13.7054 73.8253ZM16 74L16 75C24.8366 75 32 67.8366 32 59L31 59L30 59C30 66.732 23.732 73 16 73L16 74ZM31 59L32 59C32 50.1634 24.8366 43 16 43L16 44L16 45C23.732 45 30 51.268 30 59L31 59ZM16 44L16 43C15.1687 43 14.3516 43.0636 13.5535 43.1863L13.7054 44.1747L13.8574 45.163C14.5553 45.0558 15.2708 45 16 45L16 44ZM9 40.7521L10 40.7521L10 12L9 12L8 12L8 40.7521L9 40.7521ZM12 8.99999L12 9.99999L40.7521 10L40.7521 9L40.7521 8L12 7.99999L12 8.99999ZM44.1747 13.7054L43.1863 13.5535C43.0636 14.3516 43 15.1687 43 16L44 16L45 16C45 15.2708 45.0558 14.5553 45.163 13.8574L44.1747 13.7054ZM44 16L43 16C43 24.8366 50.1634 32 59 32L59 31L59 30C51.268 30 45 23.732 45 16L44 16ZM59 31L59 32C67.8366 32 75 24.8366 75 16L74 16L73 16C73 23.732 66.732 30 59 30L59 31ZM74 16L75 16C75 15.1688 74.9365 14.3518 74.814 13.5537L73.8255 13.7055L72.8371 13.8573C72.9443 14.5553 73 15.2708 73 16L74 16ZM77.2487 9L77.2487 10L106 10L106 9L106 8L77.2487 8L77.2487 9ZM109 12L108 12L108 40.7521L109 40.7521L110 40.7521L110 12L109 12ZM113.705 44.1747L113.857 45.163C114.555 45.0558 115.271 45 116 45L116 44L116 43C115.169 43 114.352 43.0636 113.554 43.1863L113.705 44.1747ZM116 44L116 45C123.732 45 130 51.268 130 59L131 59L132 59C132 50.1634 124.837 43 116 43L116 44ZM109 40.7521L108 40.7521C108 42.2789 108.841 43.5031 109.949 44.2639C111.049 45.0191 112.48 45.3747 113.857 45.163L113.705 44.1747L113.554 43.1863C112.697 43.318 111.776 43.0923 111.081 42.6152C110.395 42.144 110 41.4851 110 40.7521L109 40.7521ZM40.7521 9L40.7521 10C41.4851 10 42.144 10.3949 42.6152 11.0812C43.0923 11.7758 43.318 12.6967 43.1863 13.5535L44.1747 13.7054L45.163 13.8574C45.3747 12.4804 45.0191 11.0486 44.2639 9.94899C43.5031 8.84099 42.2789 8 40.7521 8L40.7521 9ZM106 9L106 10C107.105 10 108 10.8954 108 12L109 12L110 12C110 9.79086 108.209 8 106 8L106 9ZM9 77.2479L10 77.2479C10 76.5149 10.3949 75.856 11.0812 75.3847C11.7758 74.9077 12.6967 74.682 13.5535 74.8137L13.7054 73.8253L13.8574 72.8369C12.4804 72.6253 11.0486 72.9809 9.94899 73.7361C8.84099 74.4969 8 75.7211 8 77.2479L9 77.2479ZM73.8255 13.7055L74.814 13.5537C74.6824 12.6969 74.9082 11.776 75.3854 11.0813C75.8568 10.3949 76.5157 10 77.2487 10L77.2487 9L77.2487 8C75.7219 8 74.4977 8.841 73.7368 9.94895C72.9815 11.0485 72.6257 12.4803 72.8371 13.8573L73.8255 13.7055ZM12 109L12 108C10.8954 108 10 107.105 10 106L9 106L8 106C8 108.209 9.79086 110 12 110L12 109ZM9 12L10 12C10 10.8954 10.8954 9.99999 12 9.99999L12 8.99999L12 7.99999C9.79086 7.99999 8 9.79085 8 12L9 12ZM77.2487 109L77.2487 108C76.5157 108 75.8568 107.605 75.3854 106.919C74.9082 106.224 74.6824 105.303 74.814 104.446L73.8255 104.294L72.8371 104.143C72.6257 105.52 72.9815 106.951 73.7367 108.051C74.4977 109.159 75.7219 110 77.2487 110L77.2487 109ZM44.1747 104.295L43.1863 104.446C43.318 105.303 43.0923 106.224 42.6152 106.919C42.144 107.605 41.4851 108 40.7521 108L40.7521 109L40.7521 110C42.2789 110 43.5031 109.159 44.2639 108.051C45.0191 106.951 45.3747 105.52 45.163 104.143L44.1747 104.295ZM13.7054 44.1747L13.5535 43.1863C12.6967 43.318 11.7758 43.0923 11.0812 42.6152C10.3949 42.144 10 41.4851 10 40.7521L9 40.7521L8 40.7521C8 42.2789 8.84099 43.5031 9.94899 44.2639C11.0486 45.0191 12.4804 45.3747 13.8574 45.163L13.7054 44.1747ZM109 106L108 106C108 107.105 107.105 108 106 108L106 109L106 110C108.209 110 110 108.209 110 106L109 106ZM113.705 73.8253L113.857 72.837C112.48 72.6253 111.049 72.9809 109.949 73.7361C108.841 74.4969 108 75.7211 108 77.2479L109 77.2479L110 77.2479C110 76.5149 110.395 75.856 111.081 75.3848C111.776 74.9077 112.697 74.682 113.554 74.8137L113.705 73.8253Z" fill="black" mask="url(#path-2-inside-1_1_25)"/>
</svg>
